<svg width="180" height="180" viewBox="0 0 180 180" fill="none" xmlns="http://www.w3.org/2000/svg">
<path d="M158.404 60.7477C158.404 101.471 142.555 128 89.6892 128C35.4601 128 20.9658 99.4685 20.9658 60.7477C20.9658 60.5815 20.9658 60.4153 20.9658 60.2574C21.1652 56.1019 23.8081 54.2651 28.3625 53.808C32.2358 53.599 36.1204 53.8108 39.948 54.4397C33.7563 57.307 29.3515 60.756 27.3652 64.5292C33.0915 75.3916 58.8139 83.5779 89.6975 83.5779C120.581 83.5779 146.295 75.3916 152.03 64.5292C150.027 60.756 145.63 57.307 139.43 54.4397C143.256 53.8164 147.138 53.6101 151.007 53.8247C155.562 54.2818 158.196 56.0936 158.396 60.274C158.404 60.4153 158.404 60.5815 158.404 60.7477Z" fill="#E2DAD7"/>
<path d="M89.6892 32C51.7163 32 20.9658 44.5163 20.9658 59.9581C20.9658 60.0495 20.9658 60.1492 20.9658 60.2407C20.9658 60.2407 20.9658 60.3321 20.9658 60.2407C21.0572 63.9806 22.9604 67.546 26.3346 70.7956C36.7566 80.8685 61.1992 87.9245 89.6892 87.9245C118.179 87.9245 142.622 80.8602 153.035 70.8039C156.401 67.5626 158.305 63.9972 158.396 60.2573C158.396 60.2573 158.396 60.0661 158.396 59.9747C158.404 44.5163 127.637 32 89.6892 32ZM89.6892 83.5779C58.8139 83.5779 33.0915 75.3916 27.3569 64.5291C29.3515 60.7559 33.7563 57.3069 39.948 54.4396C51.5834 48.9876 69.5434 45.497 89.6892 45.497C109.835 45.497 127.795 48.9876 139.43 54.4313C145.63 57.3318 150.027 60.7809 152.013 64.5541C146.287 75.3916 120.556 83.5779 89.6892 83.5779Z" fill="#E2DAD7"/>
<path d="M153.193 59.958C153.179 61.5563 152.771 63.1263 152.005 64.5291C150.018 60.7559 145.63 57.3068 139.422 54.4395C127.787 48.9959 109.827 45.5053 89.6808 45.5053C69.5351 45.5053 51.5751 48.9626 39.9397 54.4395C33.748 57.3068 29.3432 60.7559 27.3569 64.5291C26.5908 63.1263 26.1826 61.5563 26.1684 59.958C26.218 57.7201 26.9874 55.5576 28.3625 53.7913C35.6512 43.735 60.3431 36.3383 89.6808 36.3383C119.019 36.3383 143.702 43.735 150.999 53.7913C152.374 55.5576 153.144 57.7201 153.193 59.958Z" fill="#D3C6C1"/>
<path d="M151.83 64.2964C146.104 75.1589 120.373 83.3452 89.498 83.3452C58.6227 83.3452 32.9003 75.1589 27.1657 64.2964C29.152 60.5232 33.5568 57.0742 39.7485 54.182C51.3839 48.73 69.3439 45.2394 89.4897 45.2394C109.635 45.2394 127.595 48.73 139.231 54.1737C145.447 57.0742 149.844 60.5232 151.83 64.2964Z" fill="#793587"/>
<path d="M64.1829 56.7001C65.737 61.3958 62.5207 63.1827 58.2738 64.5872C54.0269 65.9918 50.3783 66.4821 48.8159 61.7864C47.2534 57.0907 47.6773 46.8267 51.9159 45.3889C56.1545 43.9511 62.6287 52.0044 64.1829 56.7001Z" fill="#C62914"/>
<path d="M60.684 57.764C61.8974 61.4208 60.2435 62.5262 57.9995 63.2659C55.7555 64.0055 53.7775 64.097 52.5641 60.4484C51.3507 56.7999 50.8188 49.0624 53.0545 48.3227C55.2901 47.5831 59.4706 54.0989 60.684 57.764Z" fill="#E55242"/>
<path d="M74.156 53.6084C75.2198 57.8886 72.045 59.3015 67.9477 60.3237C63.8504 61.3459 60.3764 61.5703 59.3126 57.2902C58.2488 53.01 58.2904 43.6353 65.8451 42.2307C70.0005 41.4578 73.1255 49.3283 74.156 53.6084Z" fill="#B52212"/>
<path d="M70.8316 54.3648C71.6627 57.6892 70.0005 58.5951 67.8562 59.127C65.712 59.6589 63.8171 59.6422 62.9943 56.3095C62.1715 52.9768 62.3045 46.0372 64.4737 45.5053C66.6428 44.9734 70.0005 51.0238 70.8316 54.3648Z" fill="#B52212"/>
<path d="M76.5744 53.7747C77.6964 58.3125 74.5299 59.7586 70.4326 60.7808C66.3353 61.8031 62.853 61.9942 61.731 57.4564C60.609 52.9186 61.731 43.2447 65.8283 42.2307C69.9256 41.2168 75.4441 49.2286 76.5744 53.7747Z" fill="#C62914"/>
<path d="M73.2001 54.5145C74.0312 58.0467 72.4438 58.9692 70.2746 59.5011C68.1055 60.033 66.2355 59.9831 65.3545 56.451C64.4736 52.9188 64.5234 45.5968 66.6926 45.0566C68.8618 44.5164 72.3191 50.9823 73.2001 54.5145Z" fill="#E55242"/>
<path d="M52.8467 63.9224C54.5089 68.6264 51.2676 70.4548 47.029 71.9092C42.7904 73.3637 39.1751 73.8956 37.5877 69.1999C36.0004 64.5042 34.8617 53.916 42.5743 51.8632C46.9127 50.7163 51.226 59.2184 52.8467 63.9224Z" fill="#B52212"/>
<path d="M49.3644 65.0195C50.6277 68.6763 48.9904 69.8066 46.7631 70.5795C44.5357 71.3524 42.5411 71.4688 41.2778 67.8037C40.0146 64.1385 39.3663 56.3844 41.602 55.6198C43.8376 54.8552 48.1011 61.3544 49.3644 65.0195Z" fill="#B52212"/>
<path d="M55.0406 63.0165C56.6197 67.7371 53.3784 69.524 49.223 70.9867C45.0675 72.4495 41.3525 72.973 39.7402 68.294C38.1278 63.6149 38.3688 53.3176 42.5742 51.8632C46.7795 50.4088 53.3784 58.3457 55.0406 63.0165Z" fill="#C62914"/>
<path d="M51.5169 64.1219C52.7718 67.7621 51.1429 68.8924 48.9072 69.657C46.6716 70.4216 44.6935 70.5463 43.4053 66.9061C42.1171 63.2659 41.5104 55.545 43.7378 54.7721C45.9651 53.9991 50.2619 60.4734 51.5169 64.1219Z" fill="#E55242"/>
<path d="M89.6144 50.8658C90.5951 55.3704 87.4286 56.6835 83.3562 57.5894C79.2839 58.4953 75.8764 58.5618 74.8874 54.0489C73.8984 49.5361 75.3112 40.0533 79.3753 39.1723C83.4393 38.2914 88.642 46.3613 89.6144 50.8658Z" fill="#C62914"/>
<path d="M86.2733 51.4975C87.0296 55.0048 85.3923 55.8691 83.2481 56.3345C81.1038 56.7999 79.2505 56.6919 78.4859 53.1847C77.7213 49.6774 77.9955 42.4635 80.1481 41.9981C82.3006 41.5327 85.517 47.9903 86.2733 51.4975Z" fill="#E55242"/>
<path d="M103.003 50.8078C102.762 55.412 99.3549 55.8775 95.1994 55.6614C91.0439 55.4453 87.7195 54.6308 87.9439 50.0265C88.1683 45.4223 92.0246 36.6293 96.1801 36.8453C100.336 37.0614 103.244 46.2035 103.003 50.8078Z" fill="#C62914"/>
<path d="M99.6042 50.5418C99.4213 54.1238 97.6179 54.531 95.4487 54.4147C93.2795 54.2983 91.501 53.7082 91.6838 50.1262C91.8667 46.5442 93.986 39.6544 96.1801 39.7707C98.3741 39.8871 99.7953 46.9597 99.6042 50.5418Z" fill="#E55242"/>
<path d="M78.6772 66.1249C78.6772 67.1637 77.015 67.0723 74.9954 67.0723C72.9759 67.0723 71.322 67.1637 71.322 66.1249C71.322 65.086 72.9842 64.2549 74.9954 64.2549C77.0067 64.2549 78.6772 65.0943 78.6772 66.1249Z" fill="#F4B78E"/>
<path d="M72.9426 65.6677C72.9426 65.6677 75.6353 64.4293 77.3557 65.6677H72.9426Z" fill="#E5A67C"/>
<path d="M71.1723 67.9781C70.9895 68.9921 69.3855 68.6181 67.3825 68.2524C65.3796 67.8867 63.7506 67.6789 63.9335 66.6567C64.1163 65.6344 65.8948 65.1109 67.8895 65.4765C69.8841 65.8422 71.3635 66.9559 71.1723 67.9781Z" fill="#E2A67D"/>
<path d="M65.6123 66.4988C65.6123 66.4988 68.4879 65.7592 69.9589 67.3299L65.6123 66.4988Z" fill="#DB9A6E"/>
<path d="M88.5256 62.3933C88.5256 63.4239 86.8634 63.3407 84.8438 63.3407C82.8242 63.3407 81.1704 63.4239 81.1704 62.3933C81.1704 61.3627 82.8326 60.515 84.8438 60.515C86.8551 60.515 88.5256 61.3544 88.5256 62.3933Z" fill="#F4B78E"/>
<path d="M82.791 61.9195C82.791 61.9195 85.4837 60.6812 87.2041 61.9195H82.791Z" fill="#E5A67C"/>
<path d="M81.0291 64.2382C80.8379 65.2522 79.2339 64.8782 77.2393 64.5125C75.2446 64.1468 73.5991 63.939 73.7819 62.9251C73.9648 61.9111 75.7433 61.3709 77.7379 61.7366C79.7326 62.1023 81.2119 63.2243 81.0291 64.2382Z" fill="#E2A67D"/>
<path d="M75.4608 62.7505C75.4608 62.7505 78.3364 62.0109 79.8075 63.5816L75.4608 62.7505Z" fill="#DB9A6E"/>
<path d="M84.8439 65.8922C84.8439 66.9311 83.1817 66.8396 81.1704 66.8396C79.1592 66.8396 77.4803 66.9061 77.4803 65.8922C77.4803 64.8782 79.1425 64.0222 81.1621 64.0222C83.1817 64.0222 84.8439 64.8616 84.8439 65.8922Z" fill="#F4B78E"/>
<path d="M79.1425 65.435C79.1425 65.435 81.8436 64.1967 83.5557 65.435H79.1425Z" fill="#E5A67C"/>
<path d="M78.2367 69.8066C78.0456 70.8289 76.4415 70.4466 74.4469 70.0809C72.4523 69.7152 70.8067 69.5074 70.9895 68.4935C71.1724 67.4796 72.9509 66.9061 74.9871 67.305C77.0233 67.7039 78.4195 68.7927 78.2367 69.8066Z" fill="#E2A67D"/>
<path d="M72.6683 68.3273C72.6683 68.3273 75.5439 67.5876 77.0149 69.1168L72.6683 68.3273Z" fill="#DB9A6E"/>
<path d="M68.2136 65.5181C68.2136 66.5486 66.5514 66.4655 64.5318 66.4655C62.5123 66.4655 60.8584 66.5486 60.8584 65.5181C60.8584 64.4875 62.5206 63.6398 64.5318 63.6398C66.5431 63.6398 68.2136 64.4792 68.2136 65.5181Z" fill="#F4B78E"/>
<path d="M62.5206 65.0527C62.5206 65.0527 65.2134 63.8144 66.9337 65.0527H62.5206Z" fill="#E5A67C"/>
<path d="M60.4013 69.0004C60.2185 70.0227 58.6145 69.6404 56.6115 69.2747C54.6086 68.909 52.9796 68.7012 53.1625 67.6873C53.3453 66.6734 55.1239 66.1331 57.1185 66.4988C59.1131 66.8645 60.5925 67.9865 60.4013 69.0004Z" fill="#E2A67D"/>
<path d="M54.8413 67.521C54.8413 67.521 57.7169 66.7813 59.1879 68.3105L54.8413 67.521Z" fill="#DB9A6E"/>
<path d="M70.5657 63.6316C70.3745 64.6455 68.7705 64.2632 66.7759 63.9058C64.7812 63.5485 63.1357 63.3324 63.3517 62.3101C63.5678 61.2879 65.3048 60.7643 67.2995 61.13C69.2941 61.4957 70.7485 62.6093 70.5657 63.6316Z" fill="#E2A67D"/>
<path d="M65.0139 62.1439C65.0139 62.1439 67.8812 61.4125 69.3522 62.975L65.0139 62.1439Z" fill="#DB9A6E"/>
<path d="M74.3803 65.2855C74.3803 66.3161 72.7181 66.2329 70.7068 66.2329C68.6956 66.2329 67.0251 66.3161 67.0251 65.2855C67.0251 64.2549 68.6873 63.4155 70.7068 63.4155C72.7264 63.4155 74.3803 64.2466 74.3803 65.2855Z" fill="#F4B78E"/>
<path d="M68.6459 64.82C68.6459 64.82 71.3469 63.5817 73.0673 64.82H68.6459Z" fill="#E5A67C"/>
<path d="M67.7731 69.1998C67.582 70.2138 65.978 69.8398 63.9833 69.4741C61.9887 69.1084 60.3431 68.9006 60.5343 67.8784C60.7254 66.8561 62.4874 66.3325 64.482 66.6982C66.4766 67.0639 67.956 68.1776 67.7731 69.1998Z" fill="#E2A67D"/>
<path d="M62.213 67.7372C62.213 67.7372 65.0803 66.9976 66.5513 68.5683L62.213 67.7372Z" fill="#DB9A6E"/>
<path d="M72.0615 69.2331C72.0615 70.2637 70.3993 70.1806 68.3797 70.1806C66.3602 70.1806 64.7063 70.2637 64.7063 69.2331C64.7063 68.2026 66.3685 67.3632 68.3797 67.3632C70.391 67.3632 72.0615 68.1943 72.0615 69.2331Z" fill="#F4B78E"/>
<path d="M66.3271 68.7677C66.3271 68.7677 69.0198 67.5293 70.7402 68.7677H66.3271Z" fill="#E5A67C"/>
<path d="M84.129 58.7281C84.129 59.767 82.4668 59.6756 80.4473 59.6756C78.4277 59.6756 76.7655 59.767 76.7655 58.7281C76.7655 57.6893 78.4277 56.8582 80.4473 56.8582C82.4668 56.8582 84.129 57.6976 84.129 58.7281Z" fill="#F4B78E"/>
<path d="M78.3614 58.271C78.3614 58.271 81.0541 57.0326 82.7745 58.271H78.3614Z" fill="#E5A67C"/>
<path d="M83.4975 62.4099C83.3147 63.4321 81.7107 63.0498 79.7077 62.6841C77.7048 62.3184 76.0758 62.1107 76.2587 61.0967C76.4415 60.0828 78.2201 59.5426 80.2147 59.9083C82.2093 60.2739 83.6887 61.3959 83.4975 62.4099Z" fill="#E2A67D"/>
<path d="M77.9375 60.9306C77.9375 60.9306 80.8131 60.1909 82.2841 61.7201L77.9375 60.9306Z" fill="#DB9A6E"/>
<path d="M77.3307 61.8364C77.3307 62.867 75.6686 62.7838 73.649 62.7838C71.6294 62.7838 70.0005 62.867 70.0005 61.8364C70.0005 60.8058 71.6627 59.9664 73.6739 59.9664C75.6852 59.9664 77.3307 60.7975 77.3307 61.8364Z" fill="#F4B78E"/>
<path d="M71.5961 61.3709C71.5961 61.3709 74.2889 60.1326 76.0092 61.3709H71.5961Z" fill="#E5A67C"/>
<path d="M89.7722 64.2049C89.7722 65.2355 88.11 65.1524 86.0988 65.1524C84.0875 65.1524 82.417 65.2355 82.417 64.2049C82.417 63.1744 84.0792 62.3267 86.0988 62.3267C88.1183 62.3267 89.7722 63.1661 89.7722 64.2049Z" fill="#F4B78E"/>
<path d="M84.0376 63.7396C84.0376 63.7396 86.7387 62.5012 88.459 63.7396H84.0376Z" fill="#E5A67C"/>
<path d="M89.3319 67.8868C89.149 68.9007 87.545 68.5184 85.5421 68.161C83.5391 67.8037 81.9102 67.5793 82.093 66.5653C82.2759 65.5514 84.0461 65.0195 86.049 65.3852C88.052 65.7509 89.5147 66.9061 89.3319 67.8868Z" fill="#E2A67D"/>
<path d="M83.7718 66.3991C83.7718 66.3991 86.6474 65.6678 88.1184 67.2302L83.7718 66.3991Z" fill="#DB9A6E"/>
<path d="M83.165 67.305C83.165 68.3439 81.5029 68.2525 79.4833 68.2525C77.4637 68.2525 75.8181 68.3439 75.8181 67.305C75.8181 66.2662 77.4803 65.4351 79.4999 65.4351C81.5195 65.4351 83.165 66.2745 83.165 67.305Z" fill="#F4B78E"/>
<path d="M77.4304 66.848C77.4304 66.848 80.1232 65.6096 81.8435 66.848H77.4304Z" fill="#E5A67C"/>
<path d="M71.0061 73.4468C71.2721 74.4441 72.8428 73.9455 74.8042 73.4468C76.7656 72.9482 78.3862 72.6157 78.1286 71.5935C77.871 70.5712 76.0592 70.1972 74.0978 70.7624C72.1364 71.3275 70.7402 72.4412 71.0061 73.4468Z" fill="#E2A67D"/>
<path d="M76.4332 71.5353C76.4332 71.5353 73.5161 71.0284 72.1697 72.6656L76.4332 71.5353Z" fill="#DB9A6E"/>
<path d="M78.7519 70.7125C78.8267 71.7431 80.4639 71.5436 82.4918 71.3774C84.5197 71.2112 86.1652 71.1696 86.0821 70.1391C85.999 69.1085 84.2953 68.4021 82.2674 68.5683C80.2395 68.7345 78.6687 69.682 78.7519 70.7125Z" fill="#F4B78E"/>
<path d="M84.4284 69.8065C84.4284 69.8065 81.6442 68.7843 80.0319 70.1556L84.4284 69.8065Z" fill="#E5A67C"/>
<path d="M65.8948 71.3359C65.978 72.3664 67.6152 72.167 69.6431 71.9924C71.671 71.8179 73.3165 71.793 73.2334 70.7624C73.1503 69.7318 71.4466 69.0254 69.4187 69.1833C67.3908 69.3412 65.845 70.3053 65.8948 71.3359Z" fill="#F4B78E"/>
<path d="M71.5796 70.43C71.5796 70.43 68.7955 69.3994 67.1748 70.7707L71.5796 70.43Z" fill="#E5A67C"/>
<path d="M93.4208 56.9911C93.4208 58.0216 91.7586 57.9385 89.7391 57.9385C87.7195 57.9385 86.0573 58.0216 86.0573 56.9911C86.0573 55.9605 87.7195 55.1128 89.7391 55.1128C91.7586 55.1128 93.4208 55.9522 93.4208 56.9911Z" fill="#F4B78E"/>
<path d="M87.6779 56.5257C87.6779 56.5257 90.379 55.2874 92.0994 56.5257H87.6779Z" fill="#E5A67C"/>
<path d="M93.7448 60.1908C93.562 61.2047 91.958 60.8307 89.955 60.465C87.9521 60.0994 86.3231 59.8916 86.506 58.8693C86.6888 57.8471 88.4674 57.3235 90.462 57.6892C92.4566 58.0549 93.936 59.1685 93.7448 60.1908Z" fill="#E2A67D"/>
<path d="M88.1848 58.7115C88.1848 58.7115 91.0604 57.9718 92.5314 59.5426L88.1848 58.7115Z" fill="#DB9A6E"/>
<path d="M87.5782 59.6173C87.5782 60.6479 85.916 60.5647 83.8965 60.5647C81.8769 60.5647 80.223 60.6479 80.223 59.6173C80.223 58.5867 81.8852 57.739 83.8965 57.739C85.9077 57.739 87.5782 58.595 87.5782 59.6173Z" fill="#F4B78E"/>
<path d="M81.8436 59.1519C81.8436 59.1519 84.5363 57.9136 86.2567 59.1519H81.8436Z" fill="#E5A67C"/>
<path d="M96.5458 59.9581C96.5458 60.997 94.8836 60.9056 92.8723 60.9056C90.8611 60.9056 89.1906 60.997 89.1906 59.9581C89.1906 58.9192 90.8528 58.0881 92.8723 58.0881C94.8919 58.0881 96.5458 58.9275 96.5458 59.9581Z" fill="#F4B78E"/>
<path d="M90.7779 59.5009C90.7779 59.5009 93.479 58.2626 95.1993 59.5009H90.7779Z" fill="#E5A67C"/>
<path d="M95.0663 64.7785C94.8835 65.7925 93.2795 65.4185 91.2765 65.0528C89.2736 64.6871 87.6446 64.4793 87.8275 63.4571C88.0103 62.4349 89.7806 61.9196 91.7835 62.2769C93.7864 62.6343 95.2492 63.7563 95.0663 64.7785Z" fill="#E2A67D"/>
<path d="M89.5063 63.2991C89.5063 63.2991 92.3819 62.5594 93.8529 64.1302L89.5063 63.2991Z" fill="#DB9A6E"/>
<path d="M88.8995 64.2049C88.8995 65.2355 87.2373 65.1524 85.2178 65.1524C83.1982 65.1524 81.536 65.2355 81.536 64.2049C81.536 63.1744 83.1982 62.3267 85.2178 62.3267C87.2373 62.3267 88.8995 63.1661 88.8995 64.2049Z" fill="#F4B78E"/>
<path d="M83.1651 63.7396C83.1651 63.7396 85.8579 62.5012 87.5782 63.7396H83.1651Z" fill="#E5A67C"/>
<path d="M95.4736 67.5128C95.4736 68.5517 93.8114 68.4602 91.7919 68.4602C89.7723 68.4602 88.1184 68.5683 88.1184 67.5128C88.1184 66.4573 89.7806 65.6428 91.7919 65.6428C93.8031 65.6428 95.4736 66.4822 95.4736 67.5128Z" fill="#F4B78E"/>
<path d="M89.739 67.0557C89.739 67.0557 92.4318 65.809 94.1521 67.0557H89.739Z" fill="#E5A67C"/>
<path d="M101.358 58.0382C101.358 59.0688 99.6955 58.9856 97.6842 58.9856C95.6729 58.9856 94.0024 59.0688 94.0024 58.0382C94.0024 57.0076 95.6646 56.1599 97.6842 56.1599C99.7038 56.1599 101.358 56.9993 101.358 58.0382Z" fill="#F4B78E"/>
<path d="M95.6233 57.5728C95.6233 57.5728 98.3243 56.3345 100.036 57.5728H95.6233Z" fill="#E5A67C"/>
<path d="M98.6318 62.1855C98.6318 63.2161 96.9696 63.133 94.9501 63.133C92.9305 63.133 91.2683 63.2161 91.2683 62.1855C91.2683 61.155 92.9305 60.3073 94.9501 60.3073C96.9696 60.3073 98.6318 61.1467 98.6318 62.1855Z" fill="#F4B78E"/>
<path d="M92.8972 61.72C92.8972 61.72 95.59 60.4817 97.3104 61.72H92.8972Z" fill="#E5A67C"/>
<path d="M55.0407 69.4824C55.0407 70.3135 56.412 70.2719 58.1075 70.2719C59.8029 70.2719 61.1742 70.3384 61.1742 69.4824C61.1742 68.6264 59.8029 67.9199 58.1075 67.9199C56.412 67.9199 55.0407 68.618 55.0407 69.4824Z" fill="#F4B78E"/>
<path d="M59.8113 69.0918C59.8113 69.0918 57.5673 68.0613 56.1295 69.0918H59.8113Z" fill="#E5A67C"/>
<path d="M53.0628 72.3581C53.0628 73.1892 54.4424 73.1477 56.1296 73.1477C57.8167 73.1477 59.2046 73.2225 59.2046 72.3581C59.2046 71.4938 57.825 70.7957 56.1296 70.7957C54.4341 70.7957 53.0628 71.4938 53.0628 72.3581Z" fill="#F4B78E"/>
<path d="M57.8498 71.9758C57.8498 71.9758 55.5975 70.9369 54.168 71.9758H57.8498Z" fill="#E5A67C"/>
<path d="M51.3341 74.2114C51.3341 75.0425 52.7054 75.0425 54.4008 75.0425C56.0963 75.0425 57.4676 75.1173 57.4676 74.2114C57.4676 73.3055 56.0963 72.6489 54.4008 72.6489C52.7054 72.6489 51.3341 73.347 51.3341 74.2114Z" fill="#F4B78E"/>
<path d="M56.1129 73.829C56.1129 73.829 53.869 72.7902 52.4312 73.829H56.1129Z" fill="#E5A67C"/>
<path d="M98.0998 56.0354C97.9087 57.0576 96.3047 56.6753 94.31 56.3096C92.3154 55.9439 90.6698 55.7362 90.8527 54.7222C91.0355 53.7083 92.8141 53.1764 94.8087 53.5338C96.8033 53.8911 98.2577 55.0214 98.0998 56.0354Z" fill="#E2A67D"/>
<path d="M92.5316 54.5559C92.5316 54.5559 95.4072 53.8245 96.8782 55.3454L92.5316 54.5559Z" fill="#DB9A6E"/>
<path d="M105.738 53.8828C105.738 54.9217 104.075 54.8302 102.056 54.8302C100.036 54.8302 98.374 54.9217 98.374 53.8828C98.374 52.8439 100.036 52.0128 102.056 52.0128C104.075 52.0128 105.738 52.8522 105.738 53.8828Z" fill="#F4B78E"/>
<path d="M99.9699 53.4257C99.9699 53.4257 102.671 52.1874 104.391 53.4257H99.9699Z" fill="#E5A67C"/>
<path d="M102.978 58.0299C102.978 59.0688 101.316 58.9773 99.2967 58.9773C97.2771 58.9773 95.6233 59.0688 95.6233 58.0299C95.6233 56.991 97.2855 56.1599 99.2967 56.1599C101.308 56.1599 102.978 56.9993 102.978 58.0299Z" fill="#F4B78E"/>
<path d="M97.2439 57.5728C97.2439 57.5728 99.9366 56.3345 101.657 57.5728H97.2439Z" fill="#E5A67C"/>
<path d="M109.237 57.0659C109.237 58.0965 107.574 58.0134 105.555 58.0134C103.535 58.0134 101.881 58.0965 101.881 57.0659C101.881 56.0353 103.544 55.1876 105.555 55.1876C107.566 55.1876 109.237 56.027 109.237 57.0659Z" fill="#F4B78E"/>
<path d="M103.502 56.6004C103.502 56.6004 106.195 55.3621 107.915 56.6004H103.502Z" fill="#E5A67C"/>
<path d="M108.156 60.3404C107.965 61.3544 106.361 60.9804 104.366 60.6147C102.372 60.249 100.726 60.0412 100.909 59.019C101.092 57.9967 102.87 57.4732 104.865 57.8388C106.86 58.2045 108.339 59.3182 108.156 60.3404Z" fill="#E2A67D"/>
<path d="M102.596 58.861C102.596 58.861 105.463 58.1213 106.934 59.6921L102.596 58.861Z" fill="#DB9A6E"/>
<path d="M110.957 60.1076C110.957 61.1465 109.295 61.0551 107.275 61.0551C105.256 61.0551 103.593 61.1465 103.593 60.1076C103.593 59.0688 105.256 58.2377 107.275 58.2377C109.295 58.2377 110.957 59.0771 110.957 60.1076Z" fill="#F4B78E"/>
<path d="M105.222 59.6506C105.222 59.6506 107.915 58.4123 109.635 59.6506H105.222Z" fill="#E5A67C"/>
<path d="M115.769 58.1795C115.769 59.2184 114.107 59.1353 112.087 59.1353C110.068 59.1353 108.405 59.2184 108.405 58.1795C108.405 57.1407 110.068 56.3096 112.087 56.3096C114.107 56.3096 115.769 57.149 115.769 58.1795Z" fill="#F4B78E"/>
<path d="M110.034 57.764C110.034 57.764 112.727 56.5257 114.447 57.764H110.034Z" fill="#E5A67C"/>
<path d="M104.906 61.2131C104.906 62.252 103.244 62.1606 101.225 62.1606C99.2051 62.1606 97.5512 62.252 97.5512 61.2131C97.5512 60.1742 99.2134 59.3431 101.225 59.3431C103.236 59.3431 104.906 60.1825 104.906 61.2131Z" fill="#F4B78E"/>
<path d="M99.1554 60.7559C99.1554 60.7559 101.848 59.5176 103.569 60.7559H99.1554Z" fill="#E5A67C"/>
<path d="M113.035 62.3268C113.035 63.3656 111.372 63.2825 109.353 63.2825C107.333 63.2825 105.679 63.3656 105.679 62.3268C105.679 61.2879 107.342 60.4568 109.353 60.4568C111.364 60.4568 113.035 61.2962 113.035 62.3268Z" fill="#F4B78E"/>
<path d="M107.3 61.8697C107.3 61.8697 109.993 60.6314 111.713 61.8697H107.3Z" fill="#E5A67C"/>
<path d="M119.293 61.3626C119.293 62.3932 117.631 62.3101 115.619 62.3101C113.608 62.3101 111.938 62.3932 111.938 61.3626C111.938 60.3321 113.6 59.4927 115.619 59.4927C117.639 59.4927 119.293 60.3321 119.293 61.3626Z" fill="#F4B78E"/>
<path d="M113.558 60.8973C113.558 60.8973 116.259 59.659 117.971 60.8973H113.558Z" fill="#E5A67C"/>
<path d="M107.4 64.9862C107.209 66.0001 105.605 65.6261 103.61 65.2605C101.615 64.8948 99.9199 64.687 100.136 63.6647C100.352 62.6425 102.097 62.1189 104.092 62.4846C106.087 62.8503 107.566 63.9639 107.4 64.9862Z" fill="#E2A67D"/>
<path d="M101.815 63.5069C101.815 63.5069 104.69 62.7672 106.162 64.338L101.815 63.5069Z" fill="#DB9A6E"/>
<path d="M101.208 64.4128C101.208 65.4517 99.5459 65.3686 97.5347 65.3686C95.5234 65.3686 93.8529 65.4517 93.8529 64.4128C93.8529 63.3739 95.5151 62.5428 97.5347 62.5428C99.5542 62.5428 101.208 63.3739 101.208 64.4128Z" fill="#F4B78E"/>
<path d="M95.4735 63.9474C95.4735 63.9474 98.1746 62.7506 99.9199 63.9474H95.4735Z" fill="#E5A67C"/>
<path d="M66.0944 72.2333C65.9116 73.2556 64.3076 72.8733 62.3046 72.5076C60.3017 72.1419 58.6727 71.9341 58.8556 70.9202C59.0384 69.9063 60.8585 69.3993 62.8116 69.7317C64.7647 70.0642 66.2856 71.2194 66.0944 72.2333Z" fill="#E2A67D"/>
<path d="M60.5344 70.754C60.5344 70.754 63.41 70.0227 64.881 71.5436L60.5344 70.754Z" fill="#DB9A6E"/>
<path d="M102.679 74.9594C102.679 78.342 98.798 81.0929 94.0025 81.0929C90.1878 81.0929 86.9465 79.3476 85.7747 76.9374C87.1294 79.0733 90.1629 80.561 93.695 80.561C98.4905 80.5527 102.413 77.8101 102.413 74.386C102.413 73.7031 102.257 73.0294 101.956 72.4163C102.437 73.1768 102.688 74.0598 102.679 74.9594Z" fill="#DDC492"/>
<path d="M102.413 74.386C102.413 77.7769 98.5237 80.5195 93.7283 80.5195C90.1961 80.5195 87.1626 79.0318 85.8079 76.8959C85.5074 76.2828 85.3511 75.609 85.3508 74.9262C85.3508 71.5353 89.2403 68.7927 94.0358 68.7927C97.5679 68.7927 100.601 70.2804 101.956 72.4163C102.257 73.0295 102.413 73.7032 102.413 74.386Z" fill="#EFD9A0"/>
<path d="M99.2552 74.5687C100.136 76.5135 96.9863 79.4556 94.4016 78.4998C91.8169 77.544 88.5839 76.1977 88.5839 74.0285C88.5839 71.8593 90.8611 70.1057 93.5705 70.1057C96.2798 70.1057 98.208 72.2832 99.2552 74.5687Z" fill="#E8D19E"/>
<path d="M94.8293 73.0033C95.0013 72.7765 95.0665 72.5365 94.9751 72.4672C94.8837 72.3978 94.6702 72.5255 94.4982 72.7522C94.3263 72.979 94.261 73.219 94.3525 73.2884C94.4439 73.3577 94.6574 73.2301 94.8293 73.0033Z" fill="#1C161E"/>
<path d="M92.1022 74.5245C92.3841 74.4857 92.6 74.3621 92.5844 74.2484C92.5687 74.1347 92.3275 74.074 92.0456 74.1128C91.7637 74.1516 91.5478 74.2751 91.5634 74.3888C91.5791 74.5025 91.8203 74.5632 92.1022 74.5245Z" fill="#1C161E"/>
<path d="M94.9443 75.5036C95.0384 75.4382 94.9832 75.196 94.821 74.9626C94.6587 74.7293 94.451 74.5931 94.3569 74.6585C94.2628 74.724 94.318 74.9662 94.4802 75.1995C94.6424 75.4329 94.8502 75.569 94.9443 75.5036Z" fill="#1C161E"/>
<path d="M114.423 75.3749C112.819 78.3502 108.098 78.932 103.876 76.6548C100.51 74.8513 98.4905 71.7762 98.6069 69.0918C98.7814 71.5851 100.751 74.361 103.859 76.0398C108.081 78.3087 112.802 77.702 114.414 74.7516C114.734 74.151 114.916 73.4866 114.946 72.8068C115.017 73.6951 114.836 74.5853 114.423 75.3749Z" fill="#DDC492"/>
<path d="M114.414 74.7516C112.802 77.7436 108.081 78.3087 103.859 76.0398C100.751 74.3776 98.7813 71.6101 98.6068 69.0918C98.6291 68.4082 98.8113 67.7393 99.1387 67.1388C100.743 64.1551 105.472 63.5817 109.694 65.8589C112.802 67.5211 114.763 70.2803 114.946 72.8068C114.916 73.4866 114.734 74.151 114.414 74.7516Z" fill="#EFD9A0"/>
<path d="M111.555 73.3969C111.406 75.5328 107.242 76.6299 105.422 74.5604C103.602 72.491 101.399 69.7567 102.413 67.8452C103.427 65.9337 106.278 65.4766 108.638 66.7481C110.999 68.0197 111.755 70.8953 111.555 73.3969Z" fill="#E8D19E"/>
<path d="M108.437 69.9379C108.695 69.8198 108.867 69.6394 108.819 69.535C108.772 69.4306 108.523 69.4417 108.264 69.5598C108.005 69.6779 107.834 69.8583 107.882 69.9627C107.929 70.0671 108.178 70.056 108.437 69.9379Z" fill="#1C161E"/>
<path d="M105.87 69.9557C105.91 69.8482 105.726 69.6804 105.46 69.5808C105.193 69.4812 104.945 69.4877 104.904 69.5952C104.864 69.7027 105.048 69.8705 105.314 69.9701C105.581 70.0697 105.83 70.0632 105.87 69.9557Z" fill="#1C161E"/>
<path d="M107.485 72.1486C107.599 72.1355 107.665 71.8957 107.633 71.613C107.601 71.3302 107.482 71.1116 107.368 71.1247C107.254 71.1378 107.188 71.3776 107.22 71.6604C107.253 71.9431 107.371 72.1617 107.485 72.1486Z" fill="#1C161E"/>
<path d="M127.396 66.4739C127.396 69.8565 123.515 72.6074 118.719 72.6074C114.905 72.6074 111.663 70.8621 110.491 68.4519C111.846 70.5878 114.88 72.0755 118.412 72.0755C123.207 72.0755 127.097 69.3329 127.097 65.942C127.097 65.2592 126.94 64.5854 126.64 63.9723C127.124 64.7174 127.387 65.5851 127.396 66.4739Z" fill="#DDC492"/>
<path d="M127.097 65.9336C127.097 69.3245 123.207 72.0671 118.412 72.0671C114.88 72.0671 111.846 70.5794 110.491 68.4435C110.191 67.8304 110.035 67.1567 110.034 66.4738C110.034 63.083 113.924 60.3403 118.719 60.3403C122.251 60.3403 125.285 61.828 126.64 63.9639C126.94 64.5771 127.096 65.2508 127.097 65.9336Z" fill="#EFD9A0"/>
<path d="M123.964 66.0749C124.845 68.0197 121.695 70.9618 119.118 69.9977C116.542 69.0336 113.301 67.7039 113.301 65.5347C113.301 63.3656 115.578 61.6119 118.287 61.6119C120.997 61.6119 122.916 63.7977 123.964 66.0749Z" fill="#E8D19E"/>
<path d="M119.543 64.5187C119.715 64.2919 119.781 64.0519 119.689 63.9826C119.598 63.9132 119.384 64.0409 119.212 64.2676C119.04 64.4944 118.975 64.7344 119.066 64.8038C119.158 64.8731 119.371 64.7455 119.543 64.5187Z" fill="#1C161E"/>
<path d="M116.811 66.0348C117.093 65.9961 117.309 65.8725 117.293 65.7588C117.278 65.6451 117.036 65.5844 116.754 65.6232C116.473 65.6619 116.257 65.7855 116.272 65.8992C116.288 66.0129 116.529 66.0736 116.811 66.0348Z" fill="#1C161E"/>
<path d="M119.647 67.0543C119.741 66.9889 119.686 66.7467 119.524 66.5133C119.362 66.2799 119.154 66.1438 119.06 66.2092C118.966 66.2746 119.021 66.5168 119.183 66.7502C119.345 66.9835 119.553 67.1197 119.647 67.0543Z" fill="#1C161E"/>
<path d="M139.131 66.906C137.527 69.8896 132.806 70.4714 128.584 68.1942C125.26 66.3907 123.199 63.3157 123.315 60.6312C123.49 63.1245 125.459 65.9004 128.568 67.5709C132.79 69.8481 137.51 69.2331 139.123 66.291C139.444 65.6879 139.626 65.0205 139.655 64.3379C139.726 65.2262 139.545 66.1167 139.131 66.906Z" fill="#DDC492"/>
<path d="M139.123 66.2661C137.51 69.2498 132.79 69.8232 128.568 67.546C125.459 65.8838 123.49 63.1246 123.315 60.6064C123.336 59.9226 123.519 59.2534 123.847 58.6533C125.451 55.6697 130.18 55.0962 134.402 57.3734C137.51 59.0356 139.472 61.7948 139.655 64.3131C139.625 64.9957 139.444 65.663 139.123 66.2661Z" fill="#EFD9A0"/>
<path d="M136.297 64.9114C136.156 67.0474 131.984 68.1444 130.164 66.075C128.343 64.0055 126.108 61.2712 127.13 59.3597C128.152 57.4482 130.995 56.9911 133.355 58.2627C135.715 59.5342 136.488 62.4015 136.297 64.9114Z" fill="#E8D19E"/>
<path d="M133.154 61.4511C133.413 61.333 133.584 61.1526 133.537 61.0482C133.489 60.9438 133.24 60.9549 132.982 61.073C132.723 61.1911 132.551 61.3715 132.599 61.4759C132.647 61.5803 132.895 61.5692 133.154 61.4511Z" fill="#1C161E"/>
<path d="M130.584 61.4676C130.625 61.3601 130.441 61.1922 130.174 61.0926C129.908 60.9931 129.659 60.9995 129.619 61.107C129.579 61.2145 129.762 61.3824 130.029 61.4819C130.296 61.5815 130.544 61.5751 130.584 61.4676Z" fill="#1C161E"/>
<path d="M132.195 63.6591C132.309 63.646 132.375 63.4062 132.343 63.1235C132.31 62.8407 132.191 62.6221 132.077 62.6352C131.963 62.6483 131.897 62.8881 131.93 63.1709C131.962 63.4536 132.081 63.6722 132.195 63.6591Z" fill="#1C161E"/>
<path d="M67.6402 73.8623C67.6402 74.2861 67.474 74.9427 66.8756 74.9427C66.2772 74.9427 65.471 74.2861 65.471 73.8623C65.471 73.4384 65.9531 73.0894 66.5515 73.0894C67.1499 73.0894 67.6402 73.4384 67.6402 73.8623Z" fill="#F9CDAF"/>
<path d="M107.317 54.6308C107.4 55.6613 109.037 55.4619 111.057 55.2874C113.076 55.1128 114.738 55.0879 114.655 54.0573C114.572 53.0268 112.868 52.3203 110.841 52.4782C108.813 52.6362 107.242 53.6085 107.317 54.6308Z" fill="#F4B78E"/>
<path d="M113.001 53.7248C113.001 53.7248 110.217 52.7026 108.597 54.0656L113.001 53.7248Z" fill="#E5A67C"/>
<path d="M109.062 57.1573C109.062 57.5895 108.896 58.246 108.297 58.246C107.699 58.246 106.893 57.5895 106.893 57.1573C106.893 56.7251 107.375 56.3927 107.973 56.3927C108.572 56.3927 109.062 56.7334 109.062 57.1573Z" fill="#F9CDAF"/>
<path d="M80.1979 68.3853C80.1979 68.8092 80.0317 69.4658 79.4333 69.4658C78.8349 69.4658 78.0205 68.8092 78.0205 68.3853C78.0205 67.9615 78.5108 67.6124 79.1092 67.6124C79.7076 67.6124 80.1979 67.9615 80.1979 68.3853Z" fill="#EDCEB9"/>
<path d="M90.595 60.9471C90.595 61.371 90.4288 62.0275 89.8304 62.0275C89.232 62.0275 88.4175 61.371 88.4175 60.9471C88.4175 60.5233 88.9079 60.1742 89.5062 60.1742C90.1046 60.1742 90.595 60.5149 90.595 60.9471Z" fill="#EDCEB9"/>
<path d="M96.7119 65.676C96.7119 66.0999 96.5457 66.7564 95.9473 66.7564C95.349 66.7564 94.5428 66.0999 94.5428 65.676C94.5428 65.2521 95.0248 64.9031 95.6232 64.9031C96.2216 64.9031 96.7119 65.2438 96.7119 65.676Z" fill="#F9CDAF"/>
<path d="M98.9226 59.4926C98.9226 59.9165 98.7564 60.5731 98.158 60.5731C97.5596 60.5731 96.7451 59.9165 96.7451 59.4926C96.7451 59.0688 97.2355 58.7197 97.8339 58.7197C98.4322 58.7197 98.9226 59.0688 98.9226 59.4926Z" fill="#F9CDAF"/>
<path d="M103.768 54.905C103.768 55.3289 103.61 55.9854 103.003 55.9854C102.397 55.9854 101.582 55.3289 101.582 54.905C101.582 54.4811 102.064 54.1321 102.663 54.1321C103.261 54.1321 103.768 54.4811 103.768 54.905Z" fill="#EDCEB9"/>
<path d="M72.2776 66.8396C72.2776 67.2634 72.1197 67.92 71.513 67.92C70.9063 67.92 70.1084 67.2634 70.1084 66.8396C70.1084 66.4157 70.5904 66.0667 71.1888 66.0667C71.7872 66.0667 72.2776 66.4157 72.2776 66.8396Z" fill="#EDCEB9"/>
<path d="M62.7118 68.9339C62.7118 69.3578 62.5456 70.0144 61.9472 70.0144C61.3488 70.0144 60.5344 69.3578 60.5344 68.9339C60.5344 68.5101 61.0247 68.161 61.6231 68.161C62.2215 68.161 62.7118 68.5101 62.7118 68.9339Z" fill="#EDCEB9"/>
<path d="M90.9608 66.183C89.6476 66.5321 89.0825 66.183 88.9163 65.5348C88.75 64.8865 89.0492 64.2965 90.3624 63.9474C91.6755 63.5983 92.6146 64.1801 92.7809 64.7785C92.9471 65.3769 92.2739 65.834 90.9608 66.183Z" fill="#2B202D"/>
<path d="M70.0918 73.5549C68.7787 73.9039 68.2136 73.5549 68.0473 72.9066C67.8811 72.2584 68.1803 71.6683 69.4934 71.3192C70.8066 70.9702 71.7457 71.5519 71.9119 72.1503C72.0782 72.7487 71.405 73.2058 70.0918 73.5549Z" fill="#2B202D"/>
<path d="M73.9233 64.1718C72.6101 64.5208 72.045 64.1718 71.8788 63.5235C71.7125 62.8753 72.0117 62.2852 73.3249 61.9195C74.638 61.5538 75.5772 62.1522 75.7434 62.7506C75.9096 63.349 75.2364 63.8227 73.9233 64.1718Z" fill="#2B202D"/>
<path d="M93.6618 58.6783C92.3487 59.0273 91.7835 58.6783 91.6173 58.0217C91.4511 57.3651 91.7503 56.7917 93.0634 56.4426C94.3765 56.0936 95.3157 56.6753 95.4819 57.2737C95.6481 57.8721 94.9749 58.3292 93.6618 58.6783Z" fill="#2B202D"/>
<path d="M107.549 54.8384C106.236 55.1875 105.671 54.8384 105.505 54.1819C105.339 53.5253 105.638 52.9518 106.951 52.6028C108.264 52.2537 109.203 52.8355 109.37 53.4339C109.536 54.0323 108.863 54.4894 107.549 54.8384Z" fill="#2B202D"/>
<path d="M112.386 60.5898C111.073 60.9471 110.508 60.5898 110.342 59.9415C110.176 59.2932 110.475 58.7115 111.788 58.3541C113.101 57.9967 114.04 58.5868 114.198 59.1852C114.356 59.7836 113.666 60.2573 112.386 60.5898Z" fill="#2B202D"/>
<path d="M112.86 50.2842C112.86 51.323 111.198 51.2316 109.178 51.2316C107.159 51.2316 105.497 51.323 105.497 50.2842C105.497 49.2453 107.159 48.4142 109.178 48.4142C111.198 48.4142 112.86 49.212 112.86 50.2842Z" fill="#F4B78E"/>
<path d="M107.117 49.7854C107.117 49.7854 109.818 48.5387 111.539 49.7854H107.117Z" fill="#E5A67C"/>
<path d="M116.717 52.4699C116.717 53.5088 115.054 53.4174 113.035 53.4174C111.015 53.4174 109.353 53.5088 109.353 52.4699C109.353 51.4311 111.015 50.6 113.035 50.6C115.054 50.6 116.717 51.4394 116.717 52.4699Z" fill="#F4B78E"/>
<path d="M110.982 52.0128C110.982 52.0128 113.675 50.7744 115.395 52.0128H110.982Z" fill="#E5A67C"/>
<path d="M114.78 56.6254C113.467 56.9745 112.902 56.6254 112.735 55.9772C112.569 55.3289 112.868 54.7388 114.182 54.3898C115.495 54.0407 116.434 54.6225 116.6 55.2209C116.766 55.8193 116.093 56.2764 114.78 56.6254Z" fill="#2B202D"/>
<path d="M100.901 55.8109C100.901 56.8415 99.2385 56.7583 97.219 56.7583C95.1994 56.7583 93.5372 56.8415 93.5372 55.8109C93.5372 54.7803 95.1994 53.9326 97.219 53.9326C99.2385 53.9326 100.901 54.772 100.901 55.8109Z" fill="#F4B78E"/>
<path d="M95.1661 55.3454C95.1661 55.3454 97.8589 54.1071 99.5792 55.3454H95.1661Z" fill="#E5A67C"/>
<path d="M107.45 51.9464C107.45 52.9853 105.787 52.9021 103.768 52.9021C101.748 52.9021 100.086 52.9853 100.086 51.9464C100.086 50.9075 101.748 50.0764 103.768 50.0764C105.787 50.0764 107.45 50.8826 107.45 51.9464Z" fill="#F4B78E"/>
<path d="M101.715 51.456C101.715 51.456 104.408 50.2177 106.128 51.456H101.715Z" fill="#E5A67C"/>
</svg>
