<svg width="180" height="180" viewBox="0 0 180 180" fill="none" xmlns="http://www.w3.org/2000/svg">
<path d="M42.6354 47.0244C42.4903 55.6328 44.2595 64.166 47.8153 72.007C45.8137 74.9637 43.6974 78.5392 41.0845 81.9389C34.7663 90.0831 33.5821 97.6696 35.4463 104.324C22.3285 79.6011 31.7103 48.7587 41.6423 47.1696C41.9861 47.1161 42.3146 47.0779 42.6354 47.0244Z" fill="#E0AC7E"/>
<path d="M65.036 129.436C74.1876 132.091 83.6471 133.537 93.1739 133.737C84.6136 134.333 76.0204 133.221 67.8933 130.468C66.923 130.139 65.9604 129.795 65.036 129.436Z" fill="#E0AC7E"/>
<path d="M117.553 127.167C118.659 125.643 119.182 123.772 119.027 121.896C118.6 115.149 119.746 108.541 120.257 102.971C120.303 102.482 120.341 102.016 120.372 101.55C124.081 100.479 127.696 99.1064 131.183 97.4477C136.715 94.7842 141.909 91.4678 146.653 87.5693C146.928 87.5693 147.196 87.6457 147.463 87.6992C157.288 89.5939 143.345 114.806 117.553 127.167Z" fill="#E0AC7E"/>
<path d="M55.3943 65.4364C57.6251 65.2301 60.1998 66.5365 63.4621 70.0891C68.1071 75.1544 106.926 87.9666 109.218 87.9666C115.33 87.9666 118.286 89.846 119.577 93.0166C116.789 93.452 114.314 93.3374 112.319 92.1762C104.527 87.6533 81.5534 84.8113 65.67 76.3997C61.1379 73.9674 57.5284 70.1162 55.3943 65.4364Z" fill="#C18C68"/>
<path d="M65.036 129.436L64.0199 129.123C52.3613 125.387 38.8539 116.372 35.4465 104.324C40.8938 114.599 50.2374 123.813 65.036 129.436Z" fill="#D19C74"/>
<path d="M117.553 127.167C113.909 132.148 104.107 133.936 93.1814 133.737C101.647 133.102 109.915 130.873 117.553 127.167Z" fill="#D19C74"/>
<path d="M146.653 87.5693C141.909 91.4678 136.715 94.7842 131.183 97.4478C127.697 99.1169 124.082 100.499 120.372 101.581C120.609 98.2194 120.532 95.3009 119.608 93.0395C123.497 92.4436 128.012 90.801 132.596 89.4335C137.18 88.0659 142.138 86.9199 146.653 87.5693Z" fill="#D69F76"/>
<path d="M78.6579 99.6939C87.8146 102.349 97.2793 103.795 106.811 103.995C98.2478 104.588 89.652 103.474 81.5228 100.718C80.5526 100.389 79.5976 100.053 78.6579 99.6939Z" fill="#D19C74"/>
<path d="M120.372 101.558C115.954 102.852 111.411 103.67 106.819 103.995C97.2844 103.796 87.8172 102.35 78.658 99.6939C63.867 94.0709 54.531 84.8571 49.0837 74.5814C48.633 73.741 48.2128 72.893 47.8155 72.0373L48.4038 71.174C50.6423 67.9805 52.7891 65.6808 55.3943 65.4364C57.5284 70.1163 61.138 73.9674 65.6701 76.3997C81.5459 84.8036 104.519 87.6533 112.327 92.1762C114.321 93.3374 116.797 93.452 119.585 93.0166C120.532 95.278 120.609 98.2117 120.372 101.558Z" fill="#C18C68"/>
<path d="M78.6579 99.6939L77.6418 99.373C65.9909 95.6371 52.4835 86.6296 49.0837 74.5814C54.531 84.8571 63.867 94.0709 78.6579 99.6939Z" fill="#D19C74"/>
<path d="M120.257 102.979C119.746 108.549 118.6 115.157 119.027 121.903C119.18 123.778 118.657 125.645 117.553 127.167C109.913 130.874 101.642 133.103 93.1739 133.737C83.6446 133.538 74.1824 132.092 65.0283 129.436C50.2374 123.813 40.8937 114.599 35.4465 104.324C33.5823 97.6693 34.7665 90.0828 41.0847 81.9463C43.6976 78.5694 45.8139 74.994 47.8155 72.0144C48.2128 72.87 48.633 73.7181 49.0838 74.5585C54.531 84.8571 63.8671 94.0709 78.658 99.6939C87.8147 102.349 97.2794 103.795 106.811 103.995C111.403 103.67 115.947 102.853 120.364 101.558C120.342 102.032 120.303 102.49 120.257 102.979Z" fill="#D19C74"/>
<path d="M55.3943 65.4364C52.7891 65.6809 50.6423 67.9805 48.4038 71.174L47.8155 72.0373C44.2552 64.1869 42.4859 55.6428 42.6356 47.0241C48.1516 46.6421 49.9929 50.8441 51.9181 56.3448C52.8824 59.4462 54.0435 62.4828 55.3943 65.4364Z" fill="#D69F76"/>
<path d="M52.2926 97.9825C51.9029 96.806 48.4726 102.926 48.9615 107.15C49.4505 111.375 49.3894 114.622 50.4208 113.958C50.9097 113.644 50.1075 110.023 50.4972 106.44C50.9174 102.498 52.4912 98.5937 52.2926 97.9825Z" fill="#C98F67"/>
<path d="M66.541 107.273C66.159 106.096 62.721 112.216 63.2176 116.441C63.7142 120.666 63.6455 123.912 64.6692 123.255C65.1658 122.942 64.3636 119.321 64.7456 115.73C65.1658 111.796 66.7473 107.892 66.541 107.273Z" fill="#C98F67"/>
<path d="M90.7138 112.231C90.3242 111.054 86.848 117.174 87.3828 121.399C87.9176 125.624 87.8107 128.871 88.8421 128.214C89.331 127.893 88.5288 124.279 88.9185 120.688C89.3539 116.746 90.8819 112.85 90.7138 112.231Z" fill="#C98F67"/>
</svg>
