<svg width="180" height="180" viewBox="0 0 180 180" fill="none" xmlns="http://www.w3.org/2000/svg">
<path d="M165.806 102.821C165.787 86.8066 132.02 73.8658 90.3854 73.9164C48.7512 73.9671 15.0158 86.9901 15.0353 103.004C15.0548 119.018 48.8218 131.959 90.456 131.908C132.09 131.858 165.826 118.835 165.806 102.821Z" fill="#ABABAB"/>
<path d="M165.811 100.57C165.792 84.5556 132.025 71.6148 90.3903 71.6654C48.7561 71.7161 15.0207 84.739 15.0402 100.753C15.0596 116.767 48.8266 129.708 90.4609 129.657C132.095 129.607 165.831 116.584 165.811 100.57Z" fill="#F5F5F5"/>
<path d="M126.868 109.431C127.051 103.603 109.828 98.3363 88.4004 97.6665C66.9729 96.9968 49.4548 101.178 49.2727 107.006C49.0905 112.833 66.3133 118.101 87.7407 118.77C109.168 119.44 126.686 115.259 126.868 109.431Z" fill="#F8EBB6"/>
<path d="M127.262 96.4928L49.6667 94.0674L49.2626 106.998L126.858 109.423L127.262 96.4928Z" fill="#F8EBB6"/>
<path d="M127.272 96.4931C127.454 90.6654 110.231 85.3982 88.8037 84.7284C67.3763 84.0587 49.8582 88.24 49.676 94.0677C49.4939 99.8954 66.7166 105.163 88.1441 105.832C109.572 106.502 127.09 102.321 127.272 96.4931Z" fill="#E0B876"/>
<path d="M127.344 93.995C127.526 88.1673 110.304 82.9001 88.8762 82.2303C67.4487 81.5606 49.9307 85.7419 49.7485 91.5696C49.5664 97.3973 66.7891 102.664 88.2166 103.334C109.644 104.004 127.162 99.8227 127.344 93.995Z" fill="#F8EBB6"/>
<path d="M127.741 81.0635L50.145 78.6381L49.7409 91.5685L127.337 93.9939L127.741 81.0635Z" fill="#F8EBB6"/>
<path d="M127.754 81.0627C127.936 75.235 110.713 69.9677 89.2856 69.298C67.8582 68.6282 50.3401 72.8096 50.1579 78.6373C49.9758 84.465 67.1985 89.7322 88.626 90.4019C110.053 91.0717 127.572 86.8903 127.754 81.0627Z" fill="#E0B876"/>
<path d="M127.826 78.7201C128.008 72.8924 110.786 67.6252 89.3581 66.9554C67.9307 66.2857 50.4126 70.467 50.2305 76.2947C50.0483 82.1224 67.271 87.3896 88.6985 88.0593C110.126 88.7291 127.644 84.5478 127.826 78.7201Z" fill="#F8EBB6"/>
<path d="M128.223 65.7812L50.6274 63.3558L50.2233 76.2862L127.819 78.7116L128.223 65.7812Z" fill="#F8EBB6"/>
<path d="M128.23 65.782C128.412 59.9543 111.189 54.687 89.7615 54.0173C68.334 53.3475 50.8159 57.5289 50.6338 63.3566C50.4516 69.1843 67.6744 74.4515 89.1019 75.1212C110.529 75.791 128.047 71.6096 128.23 65.782Z" fill="#D6A661"/>
<path opacity="0.65" d="M66.0415 57.1636C63.3503 58.6535 55.0607 59.4277 56.1416 63.209C57.2224 66.9904 64.419 73.3246 64.4661 80.3327C64.5131 87.3407 70.5197 88.1983 72.4446 80.5835C74.3695 72.9688 75.7584 101.125 84.3187 99.5358C92.879 97.9468 85.0052 82.5493 86.4486 80.0141C87.892 77.4788 100.069 74.7629 101.111 85.1257C102.154 95.4884 100.862 104.648 105.375 101.219C109.888 97.7894 107.925 84.9502 111.261 81.6523C114.598 78.3544 124.147 72.6368 124.121 68.0635C124.096 63.4901 126.333 62.4004 126.333 62.4004C126.333 62.4004 123.548 55.9144 98.1675 54.5579C72.7867 53.2015 71.9316 53.8961 66.0415 57.1636Z" fill="#7F5222"/>
<path d="M91.21 59.6344L79.9119 59.0541L79.7274 62.6451L91.0256 63.2254L91.21 59.6344Z" fill="#F6ECC9"/>
<path d="M96.0053 61.6985L91.0678 63.1798L91.2553 59.5869L96.1927 58.1056L96.0053 61.6985Z" fill="#EFE5CA"/>
<path d="M91.2551 59.587L79.9579 59.009L84.8954 57.5277L96.1926 58.1057L91.2551 59.587Z" fill="#FEF7DD"/>
</svg>
